<?xml version="1.0" encoding="UTF-8" standalone="no"?>
<!-- Created with Inkscape (http://www.inkscape.org/) -->

<svg
   xmlns:dc="http://purl.org/dc/elements/1.1/"
   xmlns:cc="http://creativecommons.org/ns#"
   xmlns:rdf="http://www.w3.org/1999/02/22-rdf-syntax-ns#"
   xmlns:svg="http://www.w3.org/2000/svg"
   xmlns="http://www.w3.org/2000/svg"
   xmlns:sodipodi="http://sodipodi.sourceforge.net/DTD/sodipodi-0.dtd"
   xmlns:inkscape="http://www.inkscape.org/namespaces/inkscape"
   version="1.1"
   width="39.999989"
   height="44.783756"
   inkscape:version="0.91 r13725"
   sodipodi:docname="headphone.svg"
   style="shape-rendering:crispEdges"
   id="svg3411">
  <metadata
     id="metadata3419">
    <rdf:RDF>
      <cc:Work
         rdf:about="">
        <dc:format>image/svg+xml</dc:format>
        <dc:type
           rdf:resource="http://purl.org/dc/dcmitype/StillImage" />
        <dc:title></dc:title>
      </cc:Work>
    </rdf:RDF>
  </metadata>
  <defs
     id="defs3417" />
  <sodipodi:namedview
     pagecolor="#ffffff"
     bordercolor="#666666"
     borderopacity="1"
     objecttolerance="10"
     gridtolerance="10"
     guidetolerance="10"
     inkscape:pageopacity="0"
     inkscape:pageshadow="2"
     inkscape:window-width="1920"
     inkscape:window-height="1012"
     id="namedview3415"
     showgrid="false"
     inkscape:zoom="2.6348864"
     inkscape:cx="10.322201"
     inkscape:cy="22.391906"
     inkscape:window-x="0"
     inkscape:window-y="0"
     inkscape:window-maximized="1"
     inkscape:current-layer="layer1"
     fit-margin-top="0"
     fit-margin-left="0"
     fit-margin-right="0"
     fit-margin-bottom="0" />
  <g
     transform="matrix(2.1713316,0,0,2.1713316,-1357.2107,-1698.0892)"
     id="layer1">
    <path
       d="m 633.16852,782.04967 c -5.67659,0 -8.10938,4.99723 -8.10938,7.95313 0.72703,0.2431 1.29813,0.51749 1.76562,0.8125 -0.0833,0.0172 -0.15879,0.0294 -0.23437,0.0625 -0.34519,0.15155 -0.55195,0.46765 -0.65625,0.84375 -0.2086,0.75222 -0.0841,1.77354 0.1875,2.70313 0.23478,0.80371 0.55887,1.53946 1,1.95314 -0.079,0.40533 -0.125,0.8275 -0.125,1.26562 0,2.78209 1.69559,5.03125 3.79688,5.03125 0.52533,0 1.02919,-0.13572 1.48438,-0.39062 0.006,-0.003 0.009,-0.0121 0.0156,-0.0156 0.61744,-0.96959 1,-2.27804 1,-3.71875 0,-1.53194 -0.42185,-2.90559 -1.10937,-3.89063 -0.45984,-0.65885 -1.02886,-1.13166 -1.65626,-1.375 -0.88796,-1.21301 -1.73839,-2.44563 -2.17188,-3.73438 0.2253,-2.23322 3.39237,-6.13535 6.34376,-6.10939 2.93839,0.0258 4.14749,3.66372 5.26564,6.17189 -0.21713,0.14066 -0.41663,0.31498 -0.57813,0.51562 -0.0614,0.0763 -0.11843,0.1661 -0.17187,0.25 -0.1824,-0.0545 -0.37049,-0.0937 -0.5625,-0.0937 -1.7068,0 -3.09376,2.24917 -3.09376,5.03126 0,2.78209 1.38696,5.03126 3.09376,5.03126 1.33559,0 2.47367,-1.3804 2.90625,-3.3125 0.50128,-0.35619 0.7814,-1.34554 0.71875,-2.51564 0.20955,-0.13864 0.40563,-0.3051 0.5625,-0.5 0.41068,-0.51023 0.64062,-1.18721 0.64062,-1.9375 0,-0.75029 -0.22994,-1.44289 -0.64062,-1.95313 -0.41068,-0.51023 -1.01484,-0.85937 -1.71875,-0.85937 -0.0258,0 -0.0526,-10e-4 -0.0781,0 0.53306,-1.46679 0.28349,-2.82176 0,-4.17189 -2.38601,-2.3056 -4.21655,-3.04687 -7.87501,-3.04687 z m 7.93751,7.85938 c 1.56064,-0.007 2.60864,2.58878 1.23438,3.89063 -0.0382,0.0474 -0.0847,0.0827 -0.125,0.125 -0.23054,-1.53748 -0.97715,-2.68386 -1.71875,-2.64063 -0.23323,-0.28263 -0.48838,-0.51988 -0.76563,-0.6875 0.0499,-0.0793 0.0999,-0.16435 0.15625,-0.23437 0.44671,-0.31445 0.85922,-0.45136 1.21875,-0.45313 z m -13.90627,1.39063 c 0.12516,0.004 0.273,0.0511 0.45313,0.15625 0.59812,0.57412 0.94305,1.19577 1.25,1.82813 -0.68448,0.52257 -1.06174,1.1827 -1.39063,2.14062 -0.76594,-0.5169 -1.32294,-4.15821 -0.3125,-4.125 z m 10.62309,0.88487 c 0.35262,-0.0445 0.68833,0.38709 0.93751,0.98437 0.24919,0.59728 0.4292,1.39723 0.53125,2.29688 0.10207,0.89965 0.0929,1.73258 -0.0156,2.37501 -0.10855,0.64242 -0.31927,1.15862 -0.67188,1.20312 -0.35261,0.0445 -0.68831,-0.40272 -0.93751,-1 -0.24918,-0.59728 -0.44482,-1.39723 -0.54687,-2.29688 -0.10207,-0.89965 -0.0929,-1.73258 0.0156,-2.375 0.10855,-0.64243 0.33489,-1.143 0.6875,-1.1875 z m -7.02933,0.41201 c -0.21852,0 -0.43218,0.0313 -0.64063,0.0781 0.96215,0.18847 1.82683,0.80578 2.45313,1.70313 0.75415,1.0805 1.20313,2.55191 1.20313,4.17188 0,1.03909 -0.18215,2.02176 -0.51563,2.875 0.79779,-0.92339 1.3125,-2.26806 1.3125,-3.78125 0,-2.7821 -1.71121,-5.04688 -3.8125,-5.04688 z m 7.10746,0.22861 c -0.14195,0.0179 -0.28687,0.27527 -0.375,0.79688 -0.0881,0.52161 -0.10799,1.26391 -0.0156,2.07812 0.0924,0.81423 0.28205,1.5463 0.48439,2.03126 0.20232,0.48496 0.3893,0.67415 0.53125,0.65625 0.14195,-0.0179 0.30248,-0.25963 0.39062,-0.78125 0.0881,-0.52161 0.0924,-1.27954 0,-2.09376 -0.0924,-0.81421 -0.26642,-1.53066 -0.46875,-2.01562 -0.20232,-0.48496 -0.40493,-0.68978 -0.54688,-0.67188 z"
       id="path4983"
       style="fill:#2dbe60;fill-opacity:1;stroke:none"
       inkscape:connector-curvature="0" />
  </g>
</svg>
