<svg xmlns="http://www.w3.org/2000/svg" width="24" height="24" viewBox="0 0 24 24">
    <path fill="#FFF" fill-rule="nonzero" d="M12 0C5.373 0 0 5.373 0 12s5.373 12 12 12 12-5.373 12-12S18.627 0 12 0zM1.555 12c0-.88.11-1.758.33-2.611h4.873c0 2.875 2.366 5.241 5.242 5.241v-1.747A3.511 3.511 0 0 1 8.506 9.39 3.511 3.511 0 0 1 12 5.894a3.511 3.511 0 0 1 3.494 3.495h1.748c0-2.876-2.367-5.242-5.242-5.242H5.113A10.405 10.405 0 0 1 12 1.555c5.769 0 10.445 4.676 10.445 10.445 0 .887-.112 1.771-.334 2.63h-4.87c0-2.875-2.365-5.241-5.241-5.241v1.747a3.511 3.511 0 0 1 3.494 3.494A3.511 3.511 0 0 1 12 18.125a3.511 3.511 0 0 1-3.494-3.495H6.758c0 2.876 2.366 5.242 5.242 5.242h6.865A10.405 10.405 0 0 1 12 22.445C6.231 22.445 1.555 17.769 1.555 12z"/>
</svg>
