<?xml version="1.0" encoding="UTF-8" standalone="no"?>
<svg
   xmlns:dc="http://purl.org/dc/elements/1.1/"
   xmlns:cc="http://creativecommons.org/ns#"
   xmlns:rdf="http://www.w3.org/1999/02/22-rdf-syntax-ns#"
   xmlns:svg="http://www.w3.org/2000/svg"
   xmlns="http://www.w3.org/2000/svg"
   xmlns:sodipodi="http://sodipodi.sourceforge.net/DTD/sodipodi-0.dtd"
   xmlns:inkscape="http://www.inkscape.org/namespaces/inkscape"
   version="1.1"
   x="0px"
   y="0px"
   width="40"
   height="39.902905"
   viewBox="0 0 40 39.902905"
   enable-background="new 0 0 512 512"
   xml:space="preserve"
   id="svg3364"
   inkscape:version="0.91 r13725"
   sodipodi:docname="video.svg"><metadata
     id="metadata3371"><rdf:RDF><cc:Work
         rdf:about=""><dc:format>image/svg+xml</dc:format><dc:type
           rdf:resource="http://purl.org/dc/dcmitype/StillImage" /><dc:title></dc:title></cc:Work></rdf:RDF></metadata><defs
     id="defs3369" /><sodipodi:namedview
     pagecolor="#ffffff"
     bordercolor="#666666"
     borderopacity="1"
     objecttolerance="10"
     gridtolerance="10"
     guidetolerance="10"
     inkscape:pageopacity="0"
     inkscape:pageshadow="2"
     inkscape:window-width="1920"
     inkscape:window-height="1012"
     id="namedview3367"
     showgrid="false"
     fit-margin-top="0"
     fit-margin-left="0"
     fit-margin-right="0"
     fit-margin-bottom="0"
     inkscape:zoom="1.6015625"
     inkscape:cx="-90.517033"
     inkscape:cy="19.951461"
     inkscape:window-x="0"
     inkscape:window-y="0"
     inkscape:window-maximized="1"
     inkscape:current-layer="svg3364" /><path
     id="video-5-icon"
     d="M 18.775845,11.294555 39.722255,7.14252 39.708155,7.07194 38.3066,0 3.02505,6.99369 C 1.26893,7.34174 0,8.882035 0,10.672225 c 0,1.58369 0,23.53466 0,23.53466 0,3.140875 2.555145,5.69602 5.69592,5.69602 l 28.60816,0 C 37.444855,39.902905 40,37.34776 40,34.206885 l 0,-22.840385 0,-0.07194 -21.224175,0 z m 17.34068,22.91233 c 0,0.99942 -0.81301,1.812525 -1.812425,1.812525 l -28.60816,0 c -0.999415,0 -1.812425,-0.813105 -1.812425,-1.812525 l 0,-13.695725 32.23301,0 0,13.695725 z m -8.00699,-20.97058 -3.39136,3.39136 -5.089905,0 3.39136,-3.39136 5.089905,0 z m 5.407475,-10.30738 3.99408,2.67272 -4.989905,0.99165 -3.997085,-2.67476 4.99291,-0.98961 z m -9.829515,1.94835 3.999905,2.676505 -4.98971,0.991555 -4.002815,-2.67845 4.99262,-0.98961 z M 13.847105,6.82786 17.85264,9.508245 12.862835,10.4998 8.85439,7.817565 13.847105,6.82786 Z m -0.859705,6.408445 5.0899,0 -3.39136,3.39136 -5.0899,0 3.39136,-3.39136 z m 16.66165,3.39136 3.39136,-3.39136 5.0899,0 -3.39136,3.39136 -5.0899,0 z m -11.889515,16.654855 0,-10.558935 8.61097,5.279615 -8.61097,5.27932 z"
     style="fill:#2dbe60;fill-opacity:1"
     inkscape:connector-curvature="0" /></svg>